<svg width="356" height="39" viewBox="0 0 356 39" fill="none" xmlns="http://www.w3.org/2000/svg">
<path d="M8.288 31L0.864 8.6H5.184L11.808 28.856H9.664L16.544 8.6H20.384L27.072 28.856H24.992L31.776 8.6H35.744L28.32 31H23.904L17.792 12.728H18.944L12.736 31H8.288ZM48.9138 13.72C50.2791 13.72 51.4951 13.9867 52.5618 14.52C53.6498 15.0533 54.5031 15.8747 55.1218 16.984C55.7404 18.072 56.0498 19.48 56.0498 21.208V31H52.0498V21.72C52.0498 20.2053 51.6871 19.0747 50.9618 18.328C50.2578 17.5813 49.2658 17.208 47.9858 17.208C47.0471 17.208 46.2151 17.4 45.4898 17.784C44.7644 18.168 44.1991 18.744 43.7938 19.512C43.4098 20.2587 43.2178 21.208 43.2178 22.36V31H39.2178V7.256H43.2178V18.52L42.3538 17.112C42.9511 16.024 43.8151 15.192 44.9458 14.616C46.0978 14.0187 47.4204 13.72 48.9138 13.72ZM71.652 31V27.544L71.428 26.808V20.76C71.428 19.5867 71.076 18.68 70.372 18.04C69.668 17.3787 68.6013 17.048 67.172 17.048C66.212 17.048 65.2627 17.1973 64.324 17.496C63.4067 17.7947 62.628 18.2107 61.988 18.744L60.42 15.832C61.3373 15.128 62.4253 14.6053 63.684 14.264C64.964 13.9013 66.2867 13.72 67.652 13.72C70.1267 13.72 72.036 14.3173 73.38 15.512C74.7453 16.6853 75.428 18.5093 75.428 20.984V31H71.652ZM66.276 31.224C64.996 31.224 63.876 31.0107 62.916 30.584C61.956 30.136 61.2093 29.528 60.676 28.76C60.164 27.9707 59.908 27.0853 59.908 26.104C59.908 25.144 60.132 24.28 60.58 23.512C61.0493 22.744 61.8067 22.136 62.852 21.688C63.8973 21.24 65.284 21.016 67.012 21.016H71.972V23.672H67.3C65.9347 23.672 65.0173 23.896 64.548 24.344C64.0787 24.7707 63.844 25.304 63.844 25.944C63.844 26.6693 64.132 27.2453 64.708 27.672C65.284 28.0987 66.084 28.312 67.108 28.312C68.0893 28.312 68.964 28.088 69.732 27.64C70.5213 27.192 71.0867 26.5307 71.428 25.656L72.1 28.056C71.716 29.0587 71.0227 29.8373 70.02 30.392C69.0387 30.9467 67.7907 31.224 66.276 31.224ZM86.9935 31.224C85.1162 31.224 83.6655 30.744 82.6415 29.784C81.6175 28.8027 81.1055 27.3627 81.1055 25.464V10.136H85.1055V25.368C85.1055 26.1787 85.3082 26.808 85.7135 27.256C86.1402 27.704 86.7268 27.928 87.4735 27.928C88.3695 27.928 89.1162 27.6933 89.7135 27.224L90.8335 30.072C90.3642 30.456 89.7882 30.744 89.1055 30.936C88.4228 31.128 87.7188 31.224 86.9935 31.224ZM78.2895 17.24V14.04H89.6815V17.24H78.2895ZM93.068 16.952L94.924 9.848L95.468 12.248C94.7213 12.248 94.092 12.0133 93.58 11.544C93.0893 11.0747 92.844 10.4453 92.844 9.656C92.844 8.86666 93.0893 8.23733 93.58 7.768C94.092 7.27733 94.7107 7.032 95.436 7.032C96.1827 7.032 96.8013 7.27733 97.292 7.768C97.7827 8.25867 98.028 8.888 98.028 9.656C98.028 9.89067 98.0067 10.136 97.964 10.392C97.9427 10.6267 97.8787 10.904 97.772 11.224C97.6867 11.5227 97.5373 11.9173 97.324 12.408L95.66 16.952H93.068ZM106.685 31.224C105.256 31.224 103.88 31.0427 102.557 30.68C101.256 30.296 100.221 29.8373 99.4533 29.304L100.989 26.264C101.757 26.7547 102.675 27.16 103.741 27.48C104.808 27.8 105.875 27.96 106.941 27.96C108.2 27.96 109.107 27.7893 109.661 27.448C110.237 27.1067 110.525 26.648 110.525 26.072C110.525 25.6027 110.333 25.2507 109.949 25.016C109.565 24.76 109.064 24.568 108.445 24.44C107.827 24.312 107.133 24.1947 106.365 24.088C105.619 23.9813 104.861 23.8427 104.093 23.672C103.347 23.48 102.664 23.2133 102.045 22.872C101.427 22.5093 100.925 22.0293 100.541 21.432C100.157 20.8347 99.9653 20.0453 99.9653 19.064C99.9653 17.976 100.275 17.0373 100.893 16.248C101.512 15.4373 102.376 14.8187 103.485 14.392C104.616 13.944 105.949 13.72 107.485 13.72C108.637 13.72 109.8 13.848 110.973 14.104C112.147 14.36 113.117 14.7227 113.885 15.192L112.349 18.232C111.539 17.7413 110.717 17.4107 109.885 17.24C109.075 17.048 108.264 16.952 107.453 16.952C106.237 16.952 105.331 17.1333 104.733 17.496C104.157 17.8587 103.869 18.3173 103.869 18.872C103.869 19.384 104.061 19.768 104.445 20.024C104.829 20.28 105.331 20.4827 105.949 20.632C106.568 20.7813 107.251 20.9093 107.997 21.016C108.765 21.1013 109.523 21.24 110.269 21.432C111.016 21.624 111.699 21.8907 112.317 22.232C112.957 22.552 113.469 23.0107 113.853 23.608C114.237 24.2053 114.429 24.984 114.429 25.944C114.429 27.0107 114.109 27.9387 113.469 28.728C112.851 29.5173 111.965 30.136 110.813 30.584C109.661 31.0107 108.285 31.224 106.685 31.224ZM131.646 31V12.12H124.222V8.6H143.23V12.12H135.806V31H131.646ZM155.664 13.72C157.029 13.72 158.245 13.9867 159.312 14.52C160.4 15.0533 161.253 15.8747 161.872 16.984C162.49 18.072 162.8 19.48 162.8 21.208V31H158.8V21.72C158.8 20.2053 158.437 19.0747 157.712 18.328C157.008 17.5813 156.016 17.208 154.736 17.208C153.797 17.208 152.965 17.4 152.24 17.784C151.514 18.168 150.949 18.744 150.544 19.512C150.16 20.2587 149.968 21.208 149.968 22.36V31H145.968V7.256H149.968V18.52L149.104 17.112C149.701 16.024 150.565 15.192 151.696 14.616C152.848 14.0187 154.17 13.72 155.664 13.72ZM175.937 31.224C174.039 31.224 172.375 30.8507 170.945 30.104C169.537 29.336 168.439 28.2907 167.649 26.968C166.881 25.6453 166.497 24.1413 166.497 22.456C166.497 20.7493 166.871 19.2453 167.617 17.944C168.385 16.6213 169.431 15.5867 170.753 14.84C172.097 14.0933 173.623 13.72 175.329 13.72C176.993 13.72 178.476 14.0827 179.777 14.808C181.079 15.5333 182.103 16.5573 182.849 17.88C183.596 19.2027 183.969 20.76 183.969 22.552C183.969 22.7227 183.959 22.9147 183.937 23.128C183.937 23.3413 183.927 23.544 183.905 23.736H169.665V21.08H181.793L180.225 21.912C180.247 20.9307 180.044 20.0667 179.617 19.32C179.191 18.5733 178.604 17.9867 177.857 17.56C177.132 17.1333 176.289 16.92 175.329 16.92C174.348 16.92 173.484 17.1333 172.737 17.56C172.012 17.9867 171.436 18.584 171.009 19.352C170.604 20.0987 170.401 20.984 170.401 22.008V22.648C170.401 23.672 170.636 24.5787 171.105 25.368C171.575 26.1573 172.236 26.7653 173.089 27.192C173.943 27.6187 174.924 27.832 176.033 27.832C176.993 27.832 177.857 27.6827 178.625 27.384C179.393 27.0853 180.076 26.616 180.673 25.976L182.817 28.44C182.049 29.336 181.079 30.0293 179.905 30.52C178.753 30.9893 177.431 31.224 175.937 31.224ZM202.319 31L194.895 8.6H199.215L205.839 28.856H203.695L210.575 8.6H214.415L221.103 28.856H219.023L225.807 8.6H229.775L222.351 31H217.935L211.823 12.728H212.975L206.767 31H202.319ZM239.531 31.224C237.632 31.224 235.968 30.8507 234.539 30.104C233.131 29.336 232.032 28.2907 231.243 26.968C230.475 25.6453 230.091 24.1413 230.091 22.456C230.091 20.7493 230.464 19.2453 231.211 17.944C231.979 16.6213 233.024 15.5867 234.347 14.84C235.691 14.0933 237.216 13.72 238.923 13.72C240.587 13.72 242.07 14.0827 243.371 14.808C244.672 15.5333 245.696 16.5573 246.443 17.88C247.19 19.2027 247.563 20.76 247.563 22.552C247.563 22.7227 247.552 22.9147 247.531 23.128C247.531 23.3413 247.52 23.544 247.499 23.736H233.259V21.08H245.387L243.819 21.912C243.84 20.9307 243.638 20.0667 243.211 19.32C242.784 18.5733 242.198 17.9867 241.451 17.56C240.726 17.1333 239.883 16.92 238.923 16.92C237.942 16.92 237.078 17.1333 236.331 17.56C235.606 17.9867 235.03 18.584 234.603 19.352C234.198 20.0987 233.995 20.984 233.995 22.008V22.648C233.995 23.672 234.23 24.5787 234.699 25.368C235.168 26.1573 235.83 26.7653 236.683 27.192C237.536 27.6187 238.518 27.832 239.627 27.832C240.587 27.832 241.451 27.6827 242.219 27.384C242.987 27.0853 243.67 26.616 244.267 25.976L246.411 28.44C245.643 29.336 244.672 30.0293 243.499 30.52C242.347 30.9893 241.024 31.224 239.531 31.224ZM261.465 31V27.544L261.241 26.808V20.76C261.241 19.5867 260.889 18.68 260.185 18.04C259.481 17.3787 258.414 17.048 256.985 17.048C256.025 17.048 255.075 17.1973 254.137 17.496C253.219 17.7947 252.441 18.2107 251.801 18.744L250.233 15.832C251.15 15.128 252.238 14.6053 253.497 14.264C254.777 13.9013 256.099 13.72 257.465 13.72C259.939 13.72 261.849 14.3173 263.193 15.512C264.558 16.6853 265.241 18.5093 265.241 20.984V31H261.465ZM256.089 31.224C254.809 31.224 253.689 31.0107 252.729 30.584C251.769 30.136 251.022 29.528 250.489 28.76C249.977 27.9707 249.721 27.0853 249.721 26.104C249.721 25.144 249.945 24.28 250.393 23.512C250.862 22.744 251.619 22.136 252.665 21.688C253.71 21.24 255.097 21.016 256.825 21.016H261.785V23.672H257.113C255.747 23.672 254.83 23.896 254.361 24.344C253.891 24.7707 253.657 25.304 253.657 25.944C253.657 26.6693 253.945 27.2453 254.521 27.672C255.097 28.0987 255.897 28.312 256.921 28.312C257.902 28.312 258.777 28.088 259.545 27.64C260.334 27.192 260.899 26.5307 261.241 25.656L261.913 28.056C261.529 29.0587 260.835 29.8373 259.833 30.392C258.851 30.9467 257.603 31.224 256.089 31.224ZM276.806 31.224C274.929 31.224 273.478 30.744 272.454 29.784C271.43 28.8027 270.918 27.3627 270.918 25.464V10.136H274.918V25.368C274.918 26.1787 275.121 26.808 275.526 27.256C275.953 27.704 276.539 27.928 277.286 27.928C278.182 27.928 278.929 27.6933 279.526 27.224L280.646 30.072C280.177 30.456 279.601 30.744 278.918 30.936C278.235 31.128 277.531 31.224 276.806 31.224ZM268.102 17.24V14.04H279.494V17.24H268.102ZM293.633 13.72C294.998 13.72 296.214 13.9867 297.281 14.52C298.369 15.0533 299.222 15.8747 299.841 16.984C300.459 18.072 300.769 19.48 300.769 21.208V31H296.769V21.72C296.769 20.2053 296.406 19.0747 295.681 18.328C294.977 17.5813 293.985 17.208 292.705 17.208C291.766 17.208 290.934 17.4 290.209 17.784C289.483 18.168 288.918 18.744 288.513 19.512C288.129 20.2587 287.937 21.208 287.937 22.36V31H283.937V7.256H287.937V18.52L287.073 17.112C287.67 16.024 288.534 15.192 289.665 14.616C290.817 14.0187 292.139 13.72 293.633 13.72ZM313.906 31.224C312.007 31.224 310.343 30.8507 308.914 30.104C307.506 29.336 306.407 28.2907 305.618 26.968C304.85 25.6453 304.466 24.1413 304.466 22.456C304.466 20.7493 304.839 19.2453 305.586 17.944C306.354 16.6213 307.399 15.5867 308.722 14.84C310.066 14.0933 311.591 13.72 313.298 13.72C314.962 13.72 316.445 14.0827 317.746 14.808C319.047 15.5333 320.071 16.5573 320.818 17.88C321.565 19.2027 321.938 20.76 321.938 22.552C321.938 22.7227 321.927 22.9147 321.906 23.128C321.906 23.3413 321.895 23.544 321.874 23.736H307.634V21.08H319.762L318.194 21.912C318.215 20.9307 318.013 20.0667 317.586 19.32C317.159 18.5733 316.573 17.9867 315.826 17.56C315.101 17.1333 314.258 16.92 313.298 16.92C312.317 16.92 311.453 17.1333 310.706 17.56C309.981 17.9867 309.405 18.584 308.978 19.352C308.573 20.0987 308.37 20.984 308.37 22.008V22.648C308.37 23.672 308.605 24.5787 309.074 25.368C309.543 26.1573 310.205 26.7653 311.058 27.192C311.911 27.6187 312.893 27.832 314.002 27.832C314.962 27.832 315.826 27.6827 316.594 27.384C317.362 27.0853 318.045 26.616 318.642 25.976L320.786 28.44C320.018 29.336 319.047 30.0293 317.874 30.52C316.722 30.9893 315.399 31.224 313.906 31.224ZM325.78 31V13.912H329.588V18.616L329.14 17.24C329.652 16.088 330.452 15.2133 331.54 14.616C332.65 14.0187 334.026 13.72 335.668 13.72V17.528C335.498 17.4853 335.338 17.464 335.188 17.464C335.039 17.4427 334.89 17.432 334.74 17.432C333.226 17.432 332.02 17.88 331.124 18.776C330.228 19.6507 329.78 20.9627 329.78 22.712V31H325.78ZM344.042 23.576C344.042 22.7867 344.17 22.0933 344.426 21.496C344.682 20.8987 345.012 20.3653 345.418 19.896C345.823 19.4267 346.25 18.9893 346.698 18.584C347.167 18.1787 347.604 17.784 348.01 17.4C348.415 17.016 348.746 16.6107 349.002 16.184C349.258 15.7573 349.386 15.2773 349.386 14.744C349.386 13.848 349.023 13.1227 348.298 12.568C347.572 12.0133 346.602 11.736 345.385 11.736C344.212 11.736 343.188 11.9493 342.314 12.376C341.46 12.8027 340.746 13.4107 340.17 14.2L337.066 12.184C337.962 10.968 339.135 10.0187 340.586 9.336C342.036 8.632 343.754 8.28 345.738 8.28C347.295 8.28 348.66 8.51467 349.834 8.984C351.007 9.432 351.924 10.0933 352.586 10.968C353.247 11.8213 353.578 12.8667 353.578 14.104C353.578 14.9573 353.439 15.704 353.162 16.344C352.906 16.984 352.564 17.5493 352.138 18.04C351.732 18.5093 351.295 18.9573 350.826 19.384C350.356 19.7893 349.908 20.1947 349.482 20.6C349.076 21.0053 348.746 21.4427 348.49 21.912C348.234 22.3813 348.106 22.936 348.106 23.576H344.042ZM346.09 31.224C345.343 31.224 344.724 30.9787 344.234 30.488C343.764 29.9973 343.53 29.4107 343.53 28.728C343.53 28.0453 343.764 27.4693 344.234 27C344.724 26.5093 345.343 26.264 346.09 26.264C346.836 26.264 347.444 26.5093 347.914 27C348.383 27.4693 348.618 28.0453 348.618 28.728C348.618 29.4107 348.383 29.9973 347.914 30.488C347.444 30.9787 346.836 31.224 346.09 31.224Z" fill="black"/>
<line x1="47" y1="38.5" x2="329" y2="38.5" stroke="black"/>
</svg>
